<svg width="32" height="32" viewBox="0 0 32 32" fill="none" xmlns="http://www.w3.org/2000/svg">
<circle cx="16" cy="16" r="16" fill="#FEECEC"/>
<path d="M10 12.3494C10 12.0864 10.2178 11.8732 10.4865 11.8732H13.6786C13.6829 11.3124 13.7437 10.5435 14.3002 10.0113C14.7382 9.59242 15.3387 9.3335 16 9.3335C16.6613 9.3335 17.2617 9.59242 17.6997 10.0113C18.2563 10.5435 18.3171 11.3124 18.3214 11.8732H21.5135C21.7822 11.8732 22 12.0864 22 12.3494C22 12.6124 21.7822 12.8256 21.5135 12.8256H10.4865C10.2178 12.8256 10 12.6124 10 12.3494Z" fill="#F54141"/>
<path opacity="0.5" d="M15.7303 22.6668H16.2695C18.1247 22.6668 19.0522 22.6668 19.6553 22.0761C20.2584 21.4855 20.3201 20.5167 20.4435 18.5791L20.6213 15.7872C20.6883 14.7358 20.7218 14.2102 20.4192 13.8771C20.1167 13.5439 19.6057 13.5439 18.5839 13.5439H13.4159C12.3941 13.5439 11.8832 13.5439 11.5806 13.8771C11.2781 14.2102 11.3115 14.7358 11.3785 15.7872L11.5563 18.5791C11.6797 20.5167 11.7414 21.4855 12.3445 22.0761C12.9476 22.6668 13.8752 22.6668 15.7303 22.6668Z" fill="#F54141"/>
<path fill-rule="evenodd" clip-rule="evenodd" d="M14.2835 15.6545C14.5583 15.6256 14.8033 15.8366 14.8308 16.1258L15.1641 19.6346C15.1916 19.9238 14.9911 20.1818 14.7164 20.2107C14.4416 20.2396 14.1966 20.0286 14.1691 19.7394L13.8358 16.2306C13.8083 15.9413 14.0088 15.6834 14.2835 15.6545Z" fill="#F54141"/>
<path fill-rule="evenodd" clip-rule="evenodd" d="M17.7164 15.6545C17.9911 15.6834 18.1916 15.9413 18.1641 16.2306L17.8308 19.7394C17.8033 20.0286 17.5583 20.2396 17.2835 20.2107C17.0088 20.1818 16.8083 19.9238 16.8358 19.6346L17.1691 16.1258C17.1966 15.8366 17.4416 15.6256 17.7164 15.6545Z" fill="#F54141"/>
</svg>
