<svg width="32" height="32" viewBox="0 0 32 32" fill="none" xmlns="http://www.w3.org/2000/svg">
<circle cx="16" cy="16" r="16" fill="#EAFBF1"/>
<path opacity="0.5" fill-rule="evenodd" clip-rule="evenodd" d="M10.1667 22.6665C10.1667 22.3904 10.3906 22.1665 10.6667 22.1665H21.3334C21.6096 22.1665 21.8334 22.3904 21.8334 22.6665C21.8334 22.9426 21.6096 23.1665 21.3334 23.1665H10.6667C10.3906 23.1665 10.1667 22.9426 10.1667 22.6665Z" fill="#2FD36F"/>
<path opacity="0.5" d="M20.7204 12.9146C21.5396 12.0954 21.5396 10.7671 20.7204 9.94791C19.9012 9.12869 18.5729 9.12869 17.7537 9.94791L17.2805 10.4211C17.287 10.4407 17.2937 10.4605 17.3007 10.4806C17.4741 10.9805 17.8014 11.6359 18.417 12.2515C19.0326 12.8671 19.6879 13.1943 20.1879 13.3678C20.2079 13.3747 20.2276 13.3814 20.2471 13.3879L20.7204 12.9146Z" fill="#2FD36F"/>
<path d="M17.3007 10.3999L17.2803 10.4203C17.2868 10.4398 17.2935 10.4597 17.3004 10.4798C17.4739 10.9797 17.8011 11.635 18.4167 12.2507C19.0324 12.8663 19.6877 13.1935 20.1876 13.367C20.2075 13.3738 20.227 13.3805 20.2463 13.3869L15.6798 17.9534C15.3719 18.2613 15.2179 18.4153 15.0482 18.5477C14.848 18.7038 14.6313 18.8377 14.4021 18.947C14.2078 19.0396 14.0012 19.1084 13.5882 19.2461L11.4099 19.9722C11.2066 20.04 10.9825 19.9871 10.831 19.8356C10.6795 19.684 10.6266 19.4599 10.6943 19.2567L11.4204 17.0784C11.5581 16.6653 11.627 16.4588 11.7196 16.2645C11.8288 16.0352 11.9627 15.8186 12.1189 15.6183C12.2513 15.4486 12.4052 15.2947 12.7131 14.9868L17.3007 10.3999Z" fill="#2FD36F"/>
</svg>
