<svg width="20" height="20" viewBox="0 0 20 20" fill="none" xmlns="http://www.w3.org/2000/svg">
<path fill-rule="evenodd" clip-rule="evenodd" d="M10.0001 2.2915C5.74289 2.2915 2.29175 5.74264 2.29175 9.99984C2.29175 14.257 5.74289 17.7082 10.0001 17.7082C14.2573 17.7082 17.7084 14.257 17.7084 9.99984C17.7084 5.74264 14.2573 2.2915 10.0001 2.2915ZM1.04175 9.99984C1.04175 5.05229 5.05253 1.0415 10.0001 1.0415C14.9476 1.0415 18.9584 5.05229 18.9584 9.99984C18.9584 14.9474 14.9476 18.9582 10.0001 18.9582C5.05253 18.9582 1.04175 14.9474 1.04175 9.99984ZM10.0001 6.0415C10.3453 6.0415 10.6251 6.32133 10.6251 6.6665V9.74095L12.5254 11.6412C12.7694 11.8853 12.7694 12.281 12.5254 12.5251C12.2813 12.7692 11.8856 12.7692 11.6415 12.5251L9.55814 10.4418C9.44093 10.3246 9.37508 10.1656 9.37508 9.99984V6.6665C9.37508 6.32133 9.6549 6.0415 10.0001 6.0415Z" fill="#595959"/>
</svg>
