<svg width="30" height="30" viewBox="0 0 30 30" fill="none" xmlns="http://www.w3.org/2000/svg">
<rect width="30" height="30" rx="15" fill="#FEECEC"/>
<path fill-rule="evenodd" clip-rule="evenodd" d="M13.591 6.87502H16.4088C16.5892 6.8749 16.7463 6.8748 16.8946 6.89849C17.4807 6.99208 17.9879 7.35762 18.262 7.88403C18.3314 8.01727 18.381 8.16634 18.4379 8.33745L18.5309 8.61654C18.5466 8.66378 18.5511 8.67715 18.5549 8.68768C18.7009 9.09111 19.0792 9.36383 19.5081 9.3747C19.5194 9.37498 19.5332 9.37503 19.5832 9.37503H22.0832C22.4284 9.37503 22.7082 9.65485 22.7082 10C22.7082 10.3452 22.4284 10.625 22.0832 10.625H7.9165C7.57133 10.625 7.2915 10.3452 7.2915 10C7.2915 9.65485 7.57133 9.37503 7.9165 9.37503H10.4166C10.4666 9.37503 10.4804 9.37498 10.4917 9.3747C10.9206 9.36383 11.2989 9.09113 11.4449 8.6877C11.4487 8.67709 11.4531 8.66401 11.4689 8.61654L11.5619 8.33747C11.6188 8.16637 11.6684 8.01728 11.7378 7.88403C12.0119 7.35762 12.5191 6.99208 13.1052 6.89849C13.2535 6.8748 13.4106 6.8749 13.591 6.87502ZM12.5066 9.37503C12.5496 9.29085 12.5876 9.20337 12.6203 9.1129C12.6303 9.08543 12.64 9.05619 12.6525 9.01861L12.7357 8.7691C12.8117 8.54118 12.8292 8.49469 12.8465 8.46137C12.9379 8.2859 13.1069 8.16405 13.3023 8.13285C13.3394 8.12693 13.389 8.12503 13.6293 8.12503H16.3705C16.6108 8.12503 16.6604 8.12693 16.6975 8.13285C16.8929 8.16405 17.0619 8.2859 17.1533 8.46137C17.1707 8.49469 17.1881 8.54117 17.2641 8.7691L17.3472 9.01846L17.3795 9.11292C17.4122 9.20338 17.4503 9.29085 17.4932 9.37503H12.5066Z" fill="#F54141"/>
<path d="M9.92908 12.0418C9.90612 11.6974 9.6083 11.4368 9.26389 11.4597C8.91948 11.4827 8.65889 11.7805 8.68185 12.1249L9.06805 17.9181C9.1393 18.987 9.19685 19.8505 9.33183 20.528C9.47216 21.2324 9.71084 21.8208 10.2038 22.2821C10.6968 22.7433 11.2998 22.9423 12.012 23.0355C12.697 23.1251 13.5624 23.125 14.6337 23.125H15.3661C16.4374 23.125 17.3028 23.1251 17.9878 23.0355C18.7 22.9423 19.303 22.7433 19.796 22.2821C20.289 21.8208 20.5277 21.2324 20.668 20.528C20.803 19.8505 20.8605 18.987 20.9318 17.9181L21.318 12.1249C21.3409 11.7805 21.0803 11.4827 20.7359 11.4597C20.3915 11.4368 20.0937 11.6974 20.0707 12.0418L19.6875 17.7911C19.6126 18.9143 19.5592 19.6958 19.4421 20.2838C19.3284 20.8542 19.1698 21.1561 18.942 21.3692C18.7142 21.5824 18.4024 21.7206 17.8257 21.796C17.2312 21.8738 16.4478 21.875 15.3221 21.875H14.6777C13.552 21.875 12.7686 21.8738 12.1741 21.796C11.5975 21.7206 11.2857 21.5824 11.0578 21.3692C10.83 21.1561 10.6714 20.8542 10.5577 20.2838C10.4406 19.6958 10.3872 18.9143 10.3124 17.7911L9.92908 12.0418Z" fill="#F54141"/>
<path d="M12.8544 13.5448C13.1979 13.5105 13.5041 13.761 13.5385 14.1045L13.9551 18.2712C13.9895 18.6146 13.7389 18.9209 13.3954 18.9553C13.052 18.9896 12.7457 18.739 12.7113 18.3956L12.2947 14.2289C12.2603 13.8854 12.5109 13.5791 12.8544 13.5448Z" fill="#F54141"/>
<path d="M17.1454 13.5448C17.4889 13.5791 17.7395 13.8854 17.7051 14.2289L17.2885 18.3956C17.2541 18.739 16.9479 18.9896 16.6044 18.9553C16.2609 18.9209 16.0103 18.6146 16.0447 18.2712L16.4613 14.1045C16.4957 13.761 16.802 13.5105 17.1454 13.5448Z" fill="#F54141"/>
</svg>
