<svg width="18" height="18" viewBox="0 0 18 18" fill="none" xmlns="http://www.w3.org/2000/svg">
<g clip-path="url(#clip0_16285_431)">
<path fill-rule="evenodd" clip-rule="evenodd" d="M5.08132 3.9375H12.9182C13.5305 3.93749 14.0243 3.93749 14.4241 3.97029C14.8358 4.00407 15.1974 4.07544 15.5316 4.24661C16.0569 4.51556 16.4842 4.9429 16.7532 5.46813C16.9243 5.80241 16.9957 6.16396 17.0295 6.57565C17.0623 6.97549 17.0623 7.46932 17.0623 8.08158V8.10574C17.0623 8.12719 17.0623 8.1488 17.0624 8.17052C17.0631 8.42408 17.0639 8.69406 16.966 8.93543C16.8819 9.14268 16.7462 9.32501 16.5719 9.4651C16.4923 9.52901 16.4043 9.57968 16.3119 9.622C16.3097 10.8312 16.2942 12.0531 16.1857 13.0998C16.122 13.7142 16.0243 14.2911 15.8692 14.7829C15.7167 15.2668 15.4915 15.7248 15.135 16.0417C14.5174 16.5907 13.7401 16.8327 12.7698 16.9487C11.8174 17.0625 10.5966 17.0625 9.03817 17.0625H8.96136C7.40291 17.0625 6.18216 17.0625 5.22972 16.9487C4.25943 16.8327 3.48215 16.5907 2.86457 16.0417C2.50807 15.7248 2.28284 15.2668 2.13032 14.7829C1.97527 14.2911 1.87752 13.7142 1.81383 13.0998C1.70531 12.0531 1.68984 10.8312 1.68763 9.622C1.59528 9.57968 1.50719 9.52901 1.42765 9.4651C1.2533 9.32501 1.11764 9.14268 1.03356 8.93543C0.935626 8.69406 0.936406 8.42408 0.937139 8.17052C0.937202 8.1488 0.937264 8.12719 0.937264 8.10574L0.937264 8.08156C0.937259 7.46931 0.937254 6.97549 0.970059 6.57565C1.00384 6.16396 1.0752 5.80241 1.24637 5.46813C1.51532 4.9429 1.94266 4.51556 2.4679 4.24661C2.80217 4.07544 3.16372 4.00407 3.57542 3.97029C3.97525 3.93749 4.46907 3.93749 5.08132 3.9375ZM2.81383 9.98149C2.81894 11.0591 2.84063 12.0944 2.93283 12.9838C2.9927 13.5613 3.0803 14.0546 3.20327 14.4447C3.32876 14.8428 3.47423 15.0785 3.61198 15.2009C3.98292 15.5306 4.49539 15.7279 5.36322 15.8316C6.2411 15.9366 7.3946 15.9375 8.99976 15.9375C10.6049 15.9375 11.7584 15.9366 12.6363 15.8316C13.5041 15.7279 14.0166 15.5306 14.3875 15.2009C14.5253 15.0785 14.6708 14.8428 14.7963 14.4447C14.9192 14.0546 15.0068 13.5613 15.0667 12.9838C15.1589 12.0944 15.1806 11.0591 15.1857 9.98149L11.4373 11.106V11.3711C11.4373 11.7545 11.2039 12.0992 10.8479 12.2416L10.3228 12.4516C9.47351 12.7913 8.52602 12.7913 7.67668 12.4516L7.15159 12.2416C6.79566 12.0992 6.56226 11.7545 6.56226 11.3711V11.106L2.81383 9.98149ZM6.56226 9.93148L2.51794 8.71819C2.35638 8.66972 2.26301 8.64137 2.19456 8.61545C2.1526 8.59956 2.1359 8.59022 2.13155 8.58752C2.10727 8.56779 2.08831 8.54231 2.07639 8.51338C2.07505 8.50844 2.07091 8.48976 2.06774 8.44501C2.06259 8.372 2.06226 8.27442 2.06226 8.10574C2.06226 7.46365 2.06271 7.01606 2.09129 6.66764C2.11934 6.32584 2.17161 6.12954 2.24773 5.98088C2.4091 5.66574 2.6655 5.40933 2.98064 5.24796C3.1293 5.17185 3.3256 5.11957 3.66741 5.09153C4.01582 5.06294 4.46341 5.0625 5.1055 5.0625H12.894C13.5361 5.0625 13.9837 5.06294 14.3321 5.09153C14.6739 5.11957 14.8702 5.17185 15.0189 5.24796C15.334 5.40933 15.5904 5.66574 15.7518 5.98088C15.8279 6.12954 15.8802 6.32584 15.9082 6.66764C15.9368 7.01606 15.9373 7.46365 15.9373 8.10574C15.9373 8.27442 15.9369 8.372 15.9318 8.44501C15.9286 8.48975 15.9245 8.50843 15.9231 8.51338C15.9112 8.54231 15.8923 8.56779 15.868 8.58752C15.8636 8.59022 15.8469 8.59956 15.805 8.61545C15.7365 8.64137 15.6432 8.66972 15.4816 8.71819L11.4373 9.93148V9.75C11.4373 9.23223 11.0175 8.8125 10.4998 8.8125H7.49976C6.982 8.8125 6.56226 9.23223 6.56226 9.75V9.93148ZM15.8692 8.58669L15.868 8.58752L15.8692 8.58669ZM15.9227 8.5148L15.9231 8.51338L15.9227 8.5148ZM2.07683 8.5148L2.07639 8.51338L2.07683 8.5148ZM2.13033 8.58669L2.13155 8.58752L2.13033 8.58669ZM7.68726 9.9375V11.2442L8.0945 11.4071C8.67563 11.6395 9.3239 11.6395 9.90503 11.4071L10.3123 11.2442V9.9375H7.68726Z" fill="#595959"/>
<path fill-rule="evenodd" clip-rule="evenodd" d="M8.99991 2.0625C8.26604 2.0625 7.64021 2.53127 7.40829 3.18745C7.30476 3.48035 6.98339 3.63387 6.69049 3.53035C6.39758 3.42682 6.24407 3.10545 6.34759 2.81255C6.73342 1.72094 7.77445 0.9375 8.99991 0.9375C10.2254 0.9375 11.2664 1.72094 11.6522 2.81255C11.7558 3.10545 11.6022 3.42682 11.3093 3.53035C11.0164 3.63387 10.6951 3.48035 10.5915 3.18745C10.3596 2.53127 9.73378 2.0625 8.99991 2.0625Z" fill="#595959"/>
</g>
<defs>
<clipPath id="clip0_16285_431">
<rect width="18" height="18" fill="white"/>
</clipPath>
</defs>
</svg>
