<svg width="30" height="30" viewBox="0 0 30 30" fill="none" xmlns="http://www.w3.org/2000/svg">
<rect width="30" height="30" rx="15" fill="#F5F5F5"/>
<path fill-rule="evenodd" clip-rule="evenodd" d="M10.3735 6.4585C9.62478 6.45847 9.00041 6.45845 8.50477 6.52509C7.9816 6.59543 7.50927 6.75015 7.12971 7.12971C6.75015 7.50927 6.59543 7.9816 6.52509 8.50477C6.45845 9.00041 6.45847 9.62475 6.4585 10.3735V10.4602C6.45847 11.2089 6.45845 11.8333 6.52509 12.3289C6.59543 12.8521 6.75015 13.3244 7.12971 13.704C7.50927 14.0835 7.9816 14.2382 8.50477 14.3086C9.00041 14.3752 9.62475 14.3752 10.3735 14.3752H10.4602C11.2089 14.3752 11.8333 14.3752 12.3289 14.3086C12.8521 14.2382 13.3244 14.0835 13.704 13.704C14.0835 13.3244 14.2382 12.8521 14.3086 12.3289C14.3752 11.8333 14.3752 11.2089 14.3752 10.4602V10.3735C14.3752 9.62478 14.3752 9.00041 14.3086 8.50477C14.2382 7.9816 14.0835 7.50927 13.704 7.12971C13.3244 6.75015 12.8521 6.59543 12.3289 6.52509C11.8333 6.45845 11.2089 6.45847 10.4602 6.4585H10.3735ZM8.0136 8.0136C8.12219 7.905 8.28677 7.81565 8.67133 7.76394C9.07386 7.70983 9.61349 7.7085 10.4168 7.7085C11.2202 7.7085 11.7598 7.70983 12.1623 7.76394C12.5469 7.81565 12.7115 7.905 12.8201 8.0136C12.9287 8.12219 13.018 8.28677 13.0697 8.67133C13.1238 9.07386 13.1252 9.61349 13.1252 10.4168C13.1252 11.2202 13.1238 11.7598 13.0697 12.1623C13.018 12.5469 12.9287 12.7115 12.8201 12.8201C12.7115 12.9287 12.5469 13.018 12.1623 13.0697C11.7598 13.1238 11.2202 13.1252 10.4168 13.1252C9.61349 13.1252 9.07386 13.1238 8.67133 13.0697C8.28677 13.018 8.12219 12.9287 8.0136 12.8201C7.905 12.7115 7.81565 12.5469 7.76394 12.1623C7.70983 11.7598 7.7085 11.2202 7.7085 10.4168C7.7085 9.61349 7.70983 9.07386 7.76394 8.67133C7.81565 8.28677 7.905 8.12219 8.0136 8.0136Z" fill="#1C274C"/>
<path d="M20.2085 7.91683C20.2085 7.57165 19.9287 7.29183 19.5835 7.29183C19.2383 7.29183 18.9585 7.57165 18.9585 7.91683V9.79183H17.0835C16.7383 9.79183 16.4585 10.0717 16.4585 10.4168C16.4585 10.762 16.7383 11.0418 17.0835 11.0418H18.9585V12.9168C18.9585 13.262 19.2383 13.5418 19.5835 13.5418C19.9287 13.5418 20.2085 13.262 20.2085 12.9168V11.0418H22.0835C22.4287 11.0418 22.7085 10.762 22.7085 10.4168C22.7085 10.0717 22.4287 9.79183 22.0835 9.79183H20.2085V7.91683Z" fill="#1C274C"/>
<path fill-rule="evenodd" clip-rule="evenodd" d="M19.5402 15.6252H19.6268C20.3756 15.6251 20.9999 15.6251 21.4956 15.6918C22.0187 15.7621 22.4911 15.9168 22.8706 16.2964C23.2502 16.6759 23.4049 17.1483 23.4752 17.6714C23.5419 18.1671 23.5419 18.7914 23.5418 19.5401V19.6268C23.5419 20.3755 23.5419 20.9999 23.4752 21.4956C23.4049 22.0187 23.2502 22.4911 22.8706 22.8706C22.4911 23.2502 22.0187 23.4049 21.4956 23.4752C20.9999 23.5419 20.3756 23.5419 19.6269 23.5418H19.5402C18.7915 23.5419 18.1671 23.5419 17.6714 23.4752C17.1483 23.4049 16.6759 23.2502 16.2964 22.8706C15.9168 22.4911 15.7621 22.0187 15.6918 21.4956C15.6251 20.9999 15.6251 20.3756 15.6252 19.6268V19.5402C15.6251 18.7914 15.6251 18.1671 15.6918 17.6714C15.7621 17.1483 15.9168 16.6759 16.2964 16.2964C16.6759 15.9168 17.1483 15.7621 17.6714 15.6918C18.1671 15.6251 18.7914 15.6251 19.5402 15.6252ZM17.838 16.9306C17.4534 16.9823 17.2889 17.0717 17.1803 17.1803C17.0717 17.2889 16.9823 17.4534 16.9306 17.838C16.8765 18.2405 16.8752 18.7802 16.8752 19.5835C16.8752 20.3868 16.8765 20.9265 16.9306 21.329C16.9823 21.7136 17.0717 21.8781 17.1803 21.9867C17.2889 22.0953 17.4534 22.1847 17.838 22.2364C18.2405 22.2905 18.7802 22.2918 19.5835 22.2918C20.3868 22.2918 20.9265 22.2905 21.329 22.2364C21.7136 22.1847 21.8781 22.0953 21.9867 21.9867C22.0953 21.8781 22.1847 21.7136 22.2364 21.329C22.2905 20.9265 22.2918 20.3868 22.2918 19.5835C22.2918 18.7802 22.2905 18.2405 22.2364 17.838C22.1847 17.4534 22.0953 17.2889 21.9867 17.1803C21.8781 17.0717 21.7136 16.9823 21.329 16.9306C20.9265 16.8765 20.3868 16.8752 19.5835 16.8752C18.7802 16.8752 18.2405 16.8765 17.838 16.9306Z" fill="#1C274C"/>
<path fill-rule="evenodd" clip-rule="evenodd" d="M10.3735 15.6252C9.62477 15.6251 9.00042 15.6251 8.50477 15.6918C7.9816 15.7621 7.50927 15.9168 7.12971 16.2964C6.75015 16.6759 6.59543 17.1483 6.52509 17.6714C6.45845 18.1671 6.45847 18.7914 6.4585 19.5401V19.6268C6.45847 20.3756 6.45845 20.9999 6.52509 21.4956C6.59543 22.0187 6.75015 22.4911 7.12971 22.8706C7.50927 23.2502 7.9816 23.4049 8.50477 23.4752C9.00041 23.5419 9.62475 23.5419 10.3735 23.5418H10.4602C11.2089 23.5419 11.8333 23.5419 12.3289 23.4752C12.8521 23.4049 13.3244 23.2502 13.704 22.8706C14.0835 22.4911 14.2382 22.0187 14.3086 21.4956C14.3752 20.9999 14.3752 20.3756 14.3752 19.6269V19.5402C14.3752 18.7914 14.3752 18.1671 14.3086 17.6714C14.2382 17.1483 14.0835 16.6759 13.704 16.2964C13.3244 15.9168 12.8521 15.7621 12.3289 15.6918C11.8332 15.6251 11.2089 15.6251 10.4602 15.6252H10.3735ZM8.0136 17.1803C8.12219 17.0717 8.28677 16.9823 8.67133 16.9306C9.07386 16.8765 9.61349 16.8752 10.4168 16.8752C11.2202 16.8752 11.7598 16.8765 12.1623 16.9306C12.5469 16.9823 12.7115 17.0717 12.8201 17.1803C12.9287 17.2889 13.018 17.4534 13.0697 17.838C13.1238 18.2405 13.1252 18.7802 13.1252 19.5835C13.1252 20.3868 13.1238 20.9265 13.0697 21.329C13.018 21.7136 12.9287 21.8781 12.8201 21.9867C12.7115 22.0953 12.5469 22.1847 12.1623 22.2364C11.7598 22.2905 11.2202 22.2918 10.4168 22.2918C9.61349 22.2918 9.07386 22.2905 8.67133 22.2364C8.28677 22.1847 8.12219 22.0953 8.0136 21.9867C7.905 21.8781 7.81565 21.7136 7.76394 21.329C7.70983 20.9265 7.7085 20.3868 7.7085 19.5835C7.7085 18.7802 7.70983 18.2405 7.76394 17.838C7.81565 17.4534 7.905 17.2889 8.0136 17.1803Z" fill="#1C274C"/>
</svg>
