<svg width="30" height="30" viewBox="0 0 30 30" fill="none" xmlns="http://www.w3.org/2000/svg">
<rect width="30" height="30" rx="15" fill="#F5F5F5"/>
<path fill-rule="evenodd" clip-rule="evenodd" d="M12.6719 7.65143C12.4618 7.71799 12.2543 7.79364 12.05 7.87827C11.1148 8.26565 10.265 8.83344 9.54922 9.54922C8.83344 10.265 8.26565 11.1148 7.87827 12.05C7.57084 12.7922 7.38181 13.5767 7.31688 14.3748H11.0506C11.0773 13.4616 11.1623 12.5616 11.3036 11.7086C11.4769 10.6628 11.7329 9.69912 12.0625 8.87516C12.2425 8.42531 12.4458 8.01352 12.6719 7.65143ZM14.9998 6.0415C13.8234 6.0415 12.6585 6.27322 11.5716 6.72342C10.4848 7.17361 9.4972 7.83348 8.66534 8.66534C7.83348 9.4972 7.17362 10.4848 6.72342 11.5716C6.27322 12.6585 6.0415 13.8234 6.0415 14.9998C6.0415 16.1763 6.27322 17.3412 6.72342 18.428C7.17361 19.5149 7.83348 20.5025 8.66534 21.3343C9.4972 22.1662 10.4848 22.8261 11.5716 23.2763C12.6585 23.7265 13.8234 23.9582 14.9998 23.9582C16.1763 23.9582 17.3412 23.7265 18.428 23.2763C19.5149 22.8261 20.5025 22.1662 21.3343 21.3343C22.1662 20.5025 22.8261 19.5149 23.2763 18.428C23.7265 17.3412 23.9582 16.1763 23.9582 14.9998C23.9582 13.8234 23.7265 12.6585 23.2763 11.5716C22.8261 10.4848 22.1662 9.4972 21.3343 8.66534C20.5025 7.83348 19.5149 7.17362 18.428 6.72342C17.3412 6.27322 16.1763 6.0415 14.9998 6.0415ZM14.9998 7.2915C14.7821 7.2915 14.5009 7.39633 14.1738 7.735C13.8443 8.07618 13.5145 8.61089 13.2231 9.3394C12.9336 10.0631 12.6986 10.9367 12.5368 11.913C12.4071 12.6962 12.3275 13.5274 12.3012 14.3748L17.6985 14.3748C17.6722 13.5274 17.5926 12.6962 17.4628 11.913C17.3011 10.9367 17.066 10.0631 16.7766 9.3394C16.4852 8.61089 16.1553 8.07618 15.8259 7.735C15.4988 7.39633 15.2176 7.2915 14.9998 7.2915ZM18.9491 14.3748C18.9224 13.4616 18.8373 12.5616 18.696 11.7086C18.5228 10.6628 18.2667 9.69912 17.9372 8.87516C17.7572 8.42531 17.5539 8.01352 17.3278 7.65143C17.5379 7.71799 17.7454 7.79364 17.9497 7.87827C18.8849 8.26565 19.7347 8.83344 20.4505 9.54922C21.1662 10.265 21.734 11.1148 22.1214 12.05C22.4288 12.7922 22.6179 13.5767 22.6828 14.3748H18.9491ZM17.6985 15.6248L12.3012 15.6248C12.3275 16.4722 12.4071 17.3034 12.5368 18.0867C12.6986 19.063 12.9336 19.9366 13.2231 20.6603C13.5145 21.3888 13.8443 21.9235 14.1738 22.2647C14.5009 22.6033 14.7821 22.7082 14.9998 22.7082C15.2176 22.7082 15.4988 22.6033 15.8259 22.2647C16.1553 21.9235 16.4852 21.3888 16.7766 20.6603C17.066 19.9366 17.3011 19.063 17.4628 18.0867C17.5926 17.3034 17.6722 16.4722 17.6985 15.6248ZM17.3278 22.3482C17.5539 21.9862 17.7572 21.5744 17.9372 21.1245C18.2667 20.3006 18.5228 19.3369 18.696 18.291C18.8374 17.4381 18.9224 16.5381 18.9491 15.6248H22.6828C22.6179 16.423 22.4288 17.2075 22.1214 17.9497C21.734 18.8849 21.1662 19.7347 20.4505 20.4505C19.7347 21.1662 18.8849 21.734 17.9497 22.1214C17.7454 22.206 17.5379 22.2817 17.3278 22.3482ZM12.6719 22.3482C12.4458 21.9862 12.2425 21.5744 12.0625 21.1245C11.7329 20.3006 11.4769 19.3369 11.3036 18.291C11.1623 17.4381 11.0773 16.5381 11.0506 15.6248H7.31688C7.38181 16.423 7.57084 17.2075 7.87827 17.9497C8.26565 18.8849 8.83344 19.7347 9.54922 20.4505C10.265 21.1662 11.1148 21.734 12.05 22.1214C12.2543 22.206 12.4618 22.2817 12.6719 22.3482Z" fill="#404040"/>
</svg>
