<svg width="30" height="30" viewBox="0 0 30 30" fill="none" xmlns="http://www.w3.org/2000/svg">
<rect width="30" height="30" rx="15" fill="#F5F5F5"/>
<path d="M21.658 8.32575C20.3641 7.0581 18.5902 7.00974 17.6875 7.89421L14.6041 10.915C14.3575 11.1566 13.9618 11.1525 13.7202 10.906C13.4787 10.6594 13.4827 10.2637 13.7293 10.0221L16.8127 7.00132C18.3426 5.50242 20.9074 5.84049 22.5328 7.43286C24.1604 9.02746 24.5148 11.5625 22.9733 13.0727L20.5506 15.4463C20.304 15.6878 19.9083 15.6838 19.6668 15.4372C19.4252 15.1906 19.4292 14.7949 19.6758 14.5534L22.0985 12.1798C22.9897 11.3067 22.9496 9.59118 21.658 8.32575Z" fill="#1C274C"/>
<path d="M10.52 7.98645C10.3286 7.69925 9.94052 7.62164 9.65332 7.81311C9.36611 8.00458 9.28851 8.39262 9.47998 8.67983L11.1466 11.1798C11.3381 11.467 11.7262 11.5446 12.0134 11.3532C12.3006 11.1617 12.3782 10.7737 12.1867 10.4865L10.52 7.98645Z" fill="#1C274C"/>
<path d="M6.86432 11.0735C6.53685 10.9644 6.1829 11.1414 6.07375 11.4688C5.96459 11.7963 6.14157 12.1502 6.46903 12.2594L11.469 13.9261C11.7965 14.0352 12.1504 13.8582 12.2596 13.5308C12.3688 13.2033 12.1918 12.8494 11.8643 12.7402L6.86432 11.0735Z" fill="#1C274C"/>
<path d="M10.6063 15.4215C10.8392 15.1667 10.8214 14.7714 10.5666 14.5385C10.3118 14.3056 9.91651 14.3234 9.68364 14.5781L8.63292 15.7277C7.19389 17.3021 7.5082 19.9388 9.05321 21.6292C10.6075 23.3297 13.1119 23.716 14.5991 22.089L17.9613 18.4103C18.1942 18.1555 18.1765 17.7602 17.9217 17.5273C17.6669 17.2944 17.2715 17.3122 17.0387 17.567L13.6764 21.2456C12.8423 22.1582 11.207 22.1328 9.97587 20.7858C8.73545 19.4287 8.67342 17.5362 9.55558 16.571L10.6063 15.4215Z" fill="#1C274C"/>
</svg>
