<svg width="24" height="24" viewBox="0 0 24 24" fill="none" xmlns="http://www.w3.org/2000/svg">
<g clip-path="url(#clip0_16188_4565)">
<g opacity="0.5">
<path d="M19.7388 3.96528C17.0572 1.28371 12.7095 1.28371 10.0279 3.96528L9.30707 4.68613C9.01418 4.97902 9.01418 5.4539 9.30707 5.74679C9.59997 6.03969 10.0748 6.03969 10.3677 5.74679L11.0886 5.02594C13.1844 2.93015 16.5823 2.93015 18.6781 5.02594C20.7739 7.12173 20.7739 10.5197 18.6781 12.6155L17.9573 13.3363C17.6644 13.6292 17.6644 14.1041 17.9573 14.397C18.2502 14.6899 18.725 14.6899 19.0179 14.397L19.7388 13.6761C22.4203 10.9946 22.4203 6.64686 19.7388 3.96528Z" fill="#454545"/>
<path d="M6.04269 9.01117C6.33558 9.30407 6.33558 9.77894 6.04269 10.0718L5.32184 10.7927C3.22605 12.8885 3.22605 16.2864 5.32184 18.3822C7.41763 20.478 10.8156 20.478 12.9114 18.3822L13.6322 17.6614C13.9251 17.3685 14.4 17.3685 14.6929 17.6614C14.9858 17.9543 14.9858 18.4291 14.6929 18.722L13.972 19.4429C11.2905 22.1244 6.94276 22.1244 4.26118 19.4429C1.57961 16.7613 1.57961 12.4136 4.26118 9.73202L4.98203 9.01117C5.27492 8.71828 5.7498 8.71828 6.04269 9.01117Z" fill="#454545"/>
</g>
<path d="M14.6933 9.01117C14.9862 9.30407 14.9862 9.77894 14.6933 10.0718L10.3682 14.3969C10.0753 14.6898 9.60045 14.6898 9.30756 14.3969C9.01467 14.104 9.01467 13.6292 9.30756 13.3363L13.6327 9.01117C13.9255 8.71828 14.4004 8.71828 14.6933 9.01117Z" fill="#454545"/>
</g>
<defs>
<clipPath id="clip0_16188_4565">
<rect width="24" height="24" fill="white"/>
</clipPath>
</defs>
</svg>
