<svg width="20" height="20" viewBox="0 0 20 20" fill="none" xmlns="http://www.w3.org/2000/svg">
<path d="M7.49984 13.3334C7.49984 13.7937 7.12674 14.1667 6.6665 14.1667C6.20627 14.1667 5.83317 13.7937 5.83317 13.3334C5.83317 12.8732 6.20627 12.5001 6.6665 12.5001C7.12674 12.5001 7.49984 12.8732 7.49984 13.3334Z" fill="#8C8C8C"/>
<path d="M10.8332 13.3334C10.8332 13.7937 10.4601 14.1667 9.99984 14.1667C9.5396 14.1667 9.16651 13.7937 9.16651 13.3334C9.16651 12.8732 9.5396 12.5001 9.99984 12.5001C10.4601 12.5001 10.8332 12.8732 10.8332 13.3334Z" fill="#8C8C8C"/>
<path d="M13.3332 14.1667C13.7934 14.1667 14.1665 13.7937 14.1665 13.3334C14.1665 12.8732 13.7934 12.5001 13.3332 12.5001C12.8729 12.5001 12.4998 12.8732 12.4998 13.3334C12.4998 13.7937 12.8729 14.1667 13.3332 14.1667Z" fill="#8C8C8C"/>
<path fill-rule="evenodd" clip-rule="evenodd" d="M4.37484 6.66675V7.75239C4.18581 7.76568 4.00765 7.78298 3.84005 7.80552C3.08996 7.90636 2.45839 8.12211 1.9568 8.62371C1.4552 9.1253 1.23945 9.75686 1.13861 10.507C1.04147 11.2294 1.04149 12.148 1.0415 13.2877V13.3791C1.04149 14.5188 1.04147 15.4374 1.13861 16.1599C1.23945 16.91 1.4552 17.5415 1.9568 18.0431C2.45839 18.5447 3.08996 18.7605 3.84005 18.8613C4.56252 18.9584 5.48112 18.9584 6.62078 18.9584H13.3789C14.5186 18.9584 15.4372 18.9584 16.1596 18.8613C16.9097 18.7605 17.5413 18.5447 18.0429 18.0431C18.5445 17.5415 18.7602 16.91 18.8611 16.1599C18.9582 15.4374 18.9582 14.5188 18.9582 13.3791V13.2877C18.9582 12.148 18.9582 11.2294 18.8611 10.507C18.7602 9.75687 18.5445 9.1253 18.0429 8.62371C17.5413 8.12211 16.9097 7.90636 16.1596 7.80552C15.992 7.78298 15.8139 7.76568 15.6248 7.75239V6.66675C15.6248 3.56015 13.1064 1.04175 9.99984 1.04175C6.89324 1.04175 4.37484 3.56015 4.37484 6.66675ZM9.99984 2.29175C7.58359 2.29175 5.62484 4.2505 5.62484 6.66675V7.71128C5.93608 7.7084 6.26777 7.70841 6.62066 7.70841H13.3789C13.7318 7.70841 14.0636 7.7084 14.3748 7.71128V6.66675C14.3748 4.2505 12.4161 2.29175 9.99984 2.29175ZM4.00661 9.04437C3.39513 9.12658 3.07132 9.27695 2.84068 9.50759C2.61004 9.73823 2.45967 10.062 2.37746 10.6735C2.29283 11.303 2.29151 12.1372 2.29151 13.3334C2.29151 14.5296 2.29283 15.3639 2.37746 15.9933C2.45967 16.6048 2.61004 16.9286 2.84068 17.1592C3.07132 17.3899 3.39513 17.5402 4.00661 17.6225C4.63606 17.7071 5.47032 17.7084 6.6665 17.7084H13.3332C14.5294 17.7084 15.3636 17.7071 15.9931 17.6225C16.6046 17.5402 16.9284 17.3899 17.159 17.1592C17.3896 16.9286 17.54 16.6048 17.6222 15.9933C17.7068 15.3639 17.7082 14.5296 17.7082 13.3334C17.7082 12.1372 17.7068 11.303 17.6222 10.6735C17.54 10.062 17.3896 9.73823 17.159 9.50759C16.9284 9.27695 16.6046 9.12658 15.9931 9.04437C15.3636 8.95974 14.5294 8.95841 13.3332 8.95841H6.6665C5.47032 8.95841 4.63606 8.95974 4.00661 9.04437Z" fill="#8C8C8C"/>
</svg>
