<svg width="30" height="30" viewBox="0 0 30 30" fill="none" xmlns="http://www.w3.org/2000/svg">
<rect width="30" height="30" rx="15" fill="#FEECEC"/>
<path d="M9.55806 15.4418C9.31398 15.1977 9.31398 14.802 9.55806 14.5579L11.2247 12.8912C11.4688 12.6472 11.8645 12.6472 12.1086 12.8912C12.3527 13.1353 12.3527 13.531 12.1086 13.7751L11.5089 14.3748L17.5 14.3748C17.8452 14.3748 18.125 14.6547 18.125 14.9998C18.125 15.345 17.8452 15.6248 17.5 15.6248L11.5089 15.6248L12.1086 16.2246C12.3527 16.4686 12.3527 16.8644 12.1086 17.1084C11.8645 17.3525 11.4688 17.3525 11.2247 17.1084L9.55806 15.4418Z" fill="#F54141"/>
<path fill-rule="evenodd" clip-rule="evenodd" d="M16.6211 6.0415H17.5459C18.6856 6.04149 19.6042 6.04147 20.3266 6.13861C21.0767 6.23945 21.7083 6.4552 22.2099 6.9568C22.7115 7.45839 22.9272 8.08996 23.0281 8.84005C23.1252 9.56252 23.1252 10.4811 23.1252 11.6208V18.3789C23.1252 19.5186 23.1252 20.4372 23.0281 21.1596C22.9272 21.9097 22.7115 22.5413 22.2099 23.0429C21.7083 23.5445 21.0767 23.7602 20.3266 23.8611C19.6042 23.9582 18.6856 23.9582 17.5459 23.9582H16.6211C15.4815 23.9582 14.5629 23.9582 13.8404 23.8611C13.0903 23.7602 12.4587 23.5445 11.9571 23.0429C11.6247 22.7104 11.4172 22.3202 11.2859 21.8747C10.4931 21.8737 9.83255 21.8649 9.29741 21.793C8.66078 21.7074 8.10883 21.5222 7.66825 21.0816C7.22768 20.641 7.04244 20.0891 6.95685 19.4524C6.87497 18.8434 6.87498 18.072 6.875 17.1279V12.8718C6.87498 11.9277 6.87497 11.1563 6.95685 10.5472C7.04244 9.91062 7.22768 9.35867 7.66825 8.91809C8.10883 8.47751 8.66078 8.29228 9.29741 8.20669C9.83255 8.13474 10.4931 8.12602 11.2859 8.12498C11.4172 7.67952 11.6247 7.28924 11.9571 6.9568C12.4587 6.4552 13.0903 6.23945 13.8404 6.13861C14.5629 6.04147 15.4815 6.04149 16.6211 6.0415ZM11.0433 19.17C11.0463 19.7071 11.0552 20.1909 11.0857 20.6241C10.3903 20.6214 9.87333 20.6092 9.46397 20.5541C8.96595 20.4872 8.72175 20.3673 8.55214 20.1977C8.38252 20.0281 8.26266 19.7839 8.1957 19.2859C8.12633 18.7699 8.125 18.0829 8.125 17.0832V12.9165C8.125 11.9167 8.12633 11.2298 8.1957 10.7138C8.26266 10.2158 8.38252 9.97159 8.55214 9.80197C8.72175 9.63236 8.96595 9.5125 9.46397 9.44554C9.87333 9.3905 10.3903 9.37829 11.0857 9.3756C11.0552 9.80878 11.0463 10.2926 11.0433 10.8297C11.0414 11.1749 11.3196 11.4562 11.6648 11.4582C12.01 11.4601 12.2914 11.1818 12.2933 10.8367C12.2984 9.9254 12.322 9.2795 12.4121 8.78929C12.4988 8.31695 12.6381 8.04356 12.841 7.84068C13.0717 7.61004 13.3955 7.45967 14.0069 7.37746C14.6364 7.29283 15.4707 7.29151 16.6668 7.29151H17.5002C18.6964 7.29151 19.5306 7.29283 20.1601 7.37746C20.7716 7.45967 21.0954 7.61004 21.326 7.84068C21.5566 8.07132 21.707 8.39513 21.7892 9.00661C21.8739 9.63606 21.8752 10.4703 21.8752 11.6665V18.3332C21.8752 19.5294 21.8739 20.3636 21.7892 20.9931C21.707 21.6046 21.5566 21.9284 21.326 22.159C21.0954 22.3896 20.7716 22.54 20.1601 22.6222C19.5306 22.7068 18.6964 22.7082 17.5002 22.7082H16.6668C15.4707 22.7082 14.6364 22.7068 14.0069 22.6222C13.3955 22.54 13.0717 22.3896 12.841 22.159C12.6381 21.9561 12.4988 21.6827 12.4121 21.2104C12.322 20.7202 12.2984 20.0743 12.2933 19.163C12.2914 18.8179 12.01 18.5396 11.6648 18.5415C11.3196 18.5434 11.0414 18.8248 11.0433 19.17Z" fill="#F54141"/>
</svg>
