<svg width="16" height="16" viewBox="0 0 16 16" fill="none" xmlns="http://www.w3.org/2000/svg">
<path fill-rule="evenodd" clip-rule="evenodd" d="M2.1665 6.76236C2.1665 3.49634 4.76985 0.833496 7.99984 0.833496C11.2298 0.833496 13.8332 3.49634 13.8332 6.76236C13.8332 8.33909 13.3838 10.0321 12.5895 11.4947C11.7961 12.9556 10.6369 14.225 9.18684 14.9028C8.43355 15.2549 7.56613 15.2549 6.81283 14.9028C5.36275 14.225 4.20358 12.9556 3.41021 11.4947C2.61586 10.0321 2.1665 8.33909 2.1665 6.76236ZM7.99984 1.8335C5.33879 1.8335 3.1665 4.03182 3.1665 6.76236C3.1665 8.16041 3.56826 9.69044 4.28897 11.0175C5.01066 12.3463 6.03052 13.4333 7.23627 13.9968C7.72121 14.2235 8.27847 14.2235 8.76341 13.9968C9.96916 13.4333 10.989 12.3463 11.7107 11.0175C12.4314 9.69044 12.8332 8.16041 12.8332 6.76236C12.8332 4.03182 10.6609 1.8335 7.99984 1.8335ZM7.99984 5.16683C7.17141 5.16683 6.49984 5.8384 6.49984 6.66683C6.49984 7.49526 7.17141 8.16683 7.99984 8.16683C8.82826 8.16683 9.49984 7.49526 9.49984 6.66683C9.49984 5.8384 8.82826 5.16683 7.99984 5.16683ZM5.49984 6.66683C5.49984 5.28612 6.61913 4.16683 7.99984 4.16683C9.38055 4.16683 10.4998 5.28612 10.4998 6.66683C10.4998 8.04754 9.38055 9.16683 7.99984 9.16683C6.61913 9.16683 5.49984 8.04754 5.49984 6.66683Z" fill="#1F3292"/>
</svg>
