<svg width="350" height="233" viewBox="0 0 350 233" fill="none" xmlns="http://www.w3.org/2000/svg">
<path d="M102.612 56.9735L50.2517 91.9492L101.826 168.939L154.187 133.963L102.612 56.9735Z" fill="#F5F5F5"/>
<path d="M127.129 130.321L126.537 133.993L100.506 130.247L101.099 126.575L127.129 130.321Z" fill="#E0E0E0"/>
<path d="M114.021 117.222L117.754 117.758L113.615 143.351L109.877 142.81L114.021 117.222Z" fill="#E0E0E0"/>
<path d="M90.0666 84.6955C90.104 84.7467 84.8586 88.321 78.3486 92.6641C71.8386 97.0072 66.5326 100.493 66.4953 100.437C66.458 100.381 71.7033 96.8115 78.2133 92.4637C84.7233 88.1159 90.006 84.6396 90.0666 84.6955Z" fill="#E0E0E0"/>
<path d="M109.303 79.8676C109.34 79.9235 100.613 85.8138 89.8146 93.0274C79.0159 100.241 70.2146 106.043 70.1866 105.992C70.1586 105.94 78.8666 100.041 89.6793 92.827C100.492 85.6134 109.265 79.8117 109.303 79.8676Z" fill="#E0E0E0"/>
<path d="M113.162 85.6274C113.199 85.6833 104.473 91.5782 93.674 98.7919C82.8753 106.006 74.074 111.807 74.046 111.751C74.018 111.695 82.7353 105.805 93.5386 98.5868C104.342 91.3685 113.125 85.5714 113.162 85.6274Z" fill="#E0E0E0"/>
<path d="M117.021 91.392C117.059 91.4479 108.332 97.3428 97.5333 104.552C86.7347 111.761 77.9333 117.572 77.9333 117.516C77.9333 117.46 86.618 111.565 97.4213 104.351C108.225 97.1378 116.984 91.3361 117.021 91.392Z" fill="#E0E0E0"/>
<path d="M120.867 97.1562C120.904 97.2121 112.177 103.102 101.379 110.316C90.5801 117.53 81.7788 123.331 81.7554 123.275C81.7321 123.22 90.4541 117.329 101.267 110.116C112.079 102.902 120.867 97.1002 120.867 97.1562Z" fill="#E0E0E0"/>
<path d="M277.699 108.562L233.725 137.936L277.038 202.592L321.012 173.218L277.699 108.562Z" fill="#F5F5F5"/>
<path d="M298.293 170.174L297.794 173.259L275.931 170.113L276.435 167.028L298.293 170.174Z" fill="#E0E0E0"/>
<path d="M287.285 159.172L290.421 159.624L286.944 181.116L283.803 180.664L287.285 159.172Z" fill="#E0E0E0"/>
<path d="M267.148 131.878C267.185 131.934 262.785 134.94 257.315 138.588C251.846 142.237 247.385 145.154 247.347 145.112C247.31 145.07 251.715 142.055 257.18 138.402C262.645 134.749 267.111 131.799 267.148 131.878Z" fill="#E0E0E0"/>
<path d="M283.318 127.8C283.355 127.856 276.033 132.814 266.985 138.868C257.936 144.921 250.53 149.795 250.493 149.74C250.455 149.684 257.777 144.725 266.826 138.667C275.875 132.609 283.267 127.744 283.318 127.8Z" fill="#E0E0E0"/>
<path d="M286.561 132.638C286.599 132.694 279.277 137.652 270.228 143.71C261.179 149.768 253.773 154.633 253.736 154.577C253.699 154.521 260.997 149.586 270.069 143.528C279.141 137.47 286.533 132.586 286.561 132.638Z" fill="#E0E0E0"/>
<path d="M289.8 137.47C289.837 137.526 282.511 142.484 273.467 148.542C264.423 154.6 257.012 159.465 256.975 159.409C256.937 159.353 264.259 154.4 273.308 148.337C282.357 142.275 289.767 137.423 289.8 137.47Z" fill="#E0E0E0"/>
<path d="M293.067 142.321C293.104 142.377 285.782 147.331 276.733 153.389C267.685 159.447 260.279 164.312 260.241 164.261C260.204 164.209 267.526 159.246 276.575 153.188C285.623 147.13 293.006 142.265 293.067 142.321Z" fill="#E0E0E0"/>
<path d="M208.129 59.8063L160.148 34.1802L122.36 104.731L170.342 130.357L208.129 59.8063Z" fill="#F5F5F5"/>
<path d="M162.129 108.285L159.087 109.324L151.359 87.995L154.406 86.9512L162.129 108.285Z" fill="#E0E0E0"/>
<path d="M166.796 92.981L167.907 96.0426L146.692 103.298L145.581 100.237L166.796 92.981Z" fill="#E0E0E0"/>
<path d="M181.869 61.512C181.832 61.5819 176.969 59.0561 171.001 55.8734C165.032 52.6906 160.23 50.0484 160.267 49.9785C160.305 49.9086 165.172 52.4343 171.141 55.6171C177.109 58.7998 181.907 61.4374 181.869 61.512Z" fill="#E0E0E0"/>
<path d="M193.387 74.2013C193.349 74.2712 185.295 70.0399 175.397 64.7554C165.499 59.471 157.509 55.1279 157.547 55.058C157.584 54.9881 165.634 59.2147 175.532 64.5038C185.43 69.7929 193.424 74.1314 193.387 74.2013Z" fill="#E0E0E0"/>
<path d="M190.559 79.481C190.521 79.5509 182.467 75.3243 172.569 70.0352C162.671 64.7461 154.681 60.4077 154.719 60.3378C154.756 60.2679 162.806 64.4992 172.704 69.7836C182.602 75.068 190.596 79.4111 190.559 79.481Z" fill="#E0E0E0"/>
<path d="M187.731 84.7609C187.693 84.8308 179.639 80.6042 169.741 75.3198C159.843 70.0353 151.853 65.7062 151.891 65.6223C151.928 65.5384 159.978 69.779 169.876 75.0635C179.774 80.3479 187.768 84.691 187.731 84.7609Z" fill="#E0E0E0"/>
<path d="M184.903 90.0404C184.865 90.1103 176.811 85.8836 166.913 80.5992C157.015 75.3148 149.021 70.9716 149.063 70.9017C149.105 70.8318 157.15 75.0585 167.048 80.3429C176.946 85.6273 184.94 89.9705 184.903 90.0404Z" fill="#E0E0E0"/>
<path opacity="0.2" d="M185.15 0H183.946V20.4947H185.15V0Z" fill="black"/>
<path d="M156.441 45.2904H212.655C212.655 45.2904 207.466 20.5039 184.123 20.5039C163.361 20.5039 156.441 45.2904 156.441 45.2904Z" fill="#1F3292"/>
<path d="M185.15 0H183.946V20.4947H185.15V0Z" fill="#1F3292"/>
<path d="M309.713 204.961C309.713 205.026 249.396 205.082 175.005 205.082C100.613 205.082 40.2874 205.04 40.2874 204.961C40.2874 204.882 100.595 204.84 175.005 204.84C249.415 204.84 309.713 204.891 309.713 204.961Z" fill="#263238"/>
<path d="M55.2021 175.775C55.991 175.832 56.7605 176.047 57.4644 176.407C58.1684 176.768 58.7925 177.266 59.2994 177.872C60.3073 179.092 61.021 180.527 61.3854 182.066C62.1741 185.011 61.6887 188.492 60.8487 191.423C57.6567 190.282 55.6827 186.88 54.7821 185.091C53.3821 182.267 52.5467 176.302 55.1881 175.771" fill="#1F3292"/>
<path d="M65.4455 194.998C64.9662 194.256 64.6921 193.4 64.6511 192.517C64.6102 191.635 64.8037 190.758 65.2122 189.974C65.6335 189.198 66.2053 188.514 66.8944 187.961C67.5835 187.408 68.3759 186.998 69.2255 186.754C70.0049 186.512 70.9102 186.414 71.5869 186.866C71.8919 187.096 72.1294 187.404 72.2747 187.758C72.42 188.111 72.4677 188.497 72.4129 188.875C72.2904 189.632 71.9682 190.343 71.4795 190.934C69.9255 193.036 68.0402 194.783 65.4129 194.998" fill="#1F3292"/>
<path d="M65.8 204.844C65.7308 204.646 65.6823 204.442 65.6554 204.234C65.5714 203.796 65.4593 203.232 65.324 202.556C64.9051 200.706 64.7885 198.8 64.9787 196.913C65.1987 195.016 65.9221 193.213 67.074 191.689C67.426 191.233 67.8318 190.822 68.2827 190.464C68.4052 190.367 68.5329 190.276 68.6654 190.193C68.7075 190.158 68.7547 190.13 68.8054 190.109C68.2151 190.613 67.6758 191.173 67.1954 191.782C66.1042 193.308 65.4171 195.084 65.198 196.946C64.8994 199.117 65.268 201.107 65.4827 202.538C65.5947 203.251 65.688 203.828 65.7393 204.229C65.7761 204.432 65.7964 204.638 65.8 204.844Z" fill="#263238"/>
<path d="M56.2288 180.263C56.282 180.336 56.3259 180.416 56.3594 180.5C56.4434 180.687 56.5554 180.92 56.6861 181.213C56.9708 181.833 57.3674 182.732 57.8481 183.846C58.8094 186.078 60.0974 189.182 61.4414 192.64C62.7854 196.097 63.9288 199.252 64.7081 201.55C65.1094 202.696 65.4221 203.628 65.6414 204.276C65.7394 204.583 65.8141 204.83 65.8748 205.021C65.9081 205.107 65.9315 205.196 65.9448 205.287C65.8974 205.208 65.8598 205.123 65.8328 205.035C65.7628 204.849 65.6741 204.607 65.5574 204.304L64.5728 201.601C63.7374 199.322 62.5708 196.172 61.2314 192.719C59.8921 189.266 58.6228 186.153 57.6988 183.907C57.2321 182.802 56.8728 181.903 56.6068 181.246C56.4854 180.948 56.3874 180.71 56.3128 180.519C56.2777 180.436 56.2496 180.35 56.2288 180.263Z" fill="#263238"/>
<path d="M62.0061 198.33C61.0459 196.733 59.7189 195.388 58.1349 194.405C56.5509 193.422 54.7554 192.83 52.8968 192.677C51.9634 192.612 50.8154 192.77 50.3954 193.609C49.9754 194.448 50.5354 195.473 51.1794 196.154C52.5477 197.583 54.3092 198.576 56.2417 199.007C58.1742 199.438 60.1913 199.289 62.0388 198.577" fill="#1F3292"/>
<path d="M54.334 195.203C54.5319 195.193 54.7302 195.201 54.9267 195.226C55.1567 195.239 55.3858 195.265 55.6127 195.305C55.8787 195.357 56.1913 195.385 56.518 195.478C56.8831 195.555 57.2432 195.655 57.596 195.776C58.0048 195.907 58.4053 196.063 58.7953 196.242C59.6925 196.643 60.541 197.145 61.3247 197.738C62.0992 198.345 62.8008 199.039 63.4153 199.807C63.6807 200.141 63.9254 200.491 64.148 200.855C64.3492 201.17 64.5331 201.495 64.6987 201.829C64.8389 202.102 64.9635 202.382 65.072 202.668C65.1656 202.88 65.2451 203.098 65.31 203.321C65.3791 203.506 65.4307 203.698 65.464 203.894C65.4127 203.894 65.1887 203.092 64.5587 201.899C64.3871 201.579 64.1986 201.268 63.994 200.967C63.7666 200.614 63.5205 200.274 63.2567 199.947C62.0361 198.441 60.4795 197.24 58.7113 196.442C58.3053 196.265 57.918 196.098 57.54 195.976C57.193 195.85 56.8393 195.743 56.4807 195.655C55.174 195.296 54.3293 195.254 54.334 195.203Z" fill="#263238"/>
<path d="M139.533 109.296L123.013 194.015L120.867 205.106L231 204.574C235.947 204.551 240.333 200.166 241.915 193.651L261.45 113.672C262.659 108.727 260.008 103.583 256.256 103.587L144.76 103.704C142.333 103.699 140.159 105.992 139.533 109.296Z" fill="#1F3292"/>
<g opacity="0.5">
<path d="M139.533 109.296L123.013 194.015L120.867 205.106L231 204.574C235.947 204.551 240.333 200.166 241.915 193.651L261.45 113.672C262.659 108.727 260.008 103.583 256.256 103.587L144.76 103.704C142.333 103.699 140.159 105.992 139.533 109.296Z" fill="black"/>
</g>
<path d="M220.449 188.264L208.782 94.4072C208.315 90.5627 205.24 87.6921 201.614 87.7061L176.041 87.7853C175.09 87.796 174.152 87.9999 173.283 88.3844C172.414 88.769 171.633 89.3262 170.987 90.0221L158.853 102.916L87.7334 103.298C83.3888 103.322 80.0474 107.432 80.6214 112.045L91.4528 198.791C91.9194 202.631 94.9948 205.497 98.6114 205.492L222.581 205.245C236.385 205.53 237.706 201.461 237.706 201.461C221.858 204.961 220.449 188.288 220.449 188.264Z" fill="#1F3292"/>
<g opacity="0.5">
<path d="M166.992 169.494L162.811 173.977L130.611 145.047L134.792 140.564L166.992 169.494Z" fill="white"/>
<path d="M161.061 139.572L165.681 143.724L136.547 174.969L131.922 170.817L161.061 139.572Z" fill="white"/>
</g>
<path d="M238.149 48.3616C237.998 48.298 237.869 48.1928 237.775 48.0583C237.682 47.9238 237.629 47.7655 237.622 47.602L237.435 43.2775C237.429 43.1431 237.454 43.0091 237.508 42.8859C237.562 42.7628 237.644 42.654 237.748 42.5681C237.852 42.4822 237.974 42.4216 238.105 42.391C238.236 42.3605 238.373 42.3608 238.504 42.3921C238.865 42.47 239.239 42.4733 239.602 42.402C239.964 42.3307 240.309 42.1862 240.613 41.9774C240.894 41.8 241.135 41.567 241.322 41.2929C241.509 41.0188 241.638 40.7094 241.701 40.3836C241.743 40.0538 241.718 39.7189 241.629 39.3987C241.539 39.0785 241.386 38.7796 241.178 38.5196C240.959 38.2239 240.684 37.9741 240.369 37.7846C240.053 37.5951 239.703 37.4696 239.339 37.4152C238.605 37.3745 237.878 37.5823 237.277 38.0052C236.676 38.428 236.235 39.0411 236.026 39.7452C235.956 39.9586 235.807 40.1368 235.609 40.2429C235.411 40.349 235.179 40.3746 234.963 40.3146C234.746 40.2545 234.561 40.1133 234.446 39.9205C234.332 39.7276 234.296 39.4979 234.346 39.2792C234.664 38.1717 235.353 37.2072 236.299 36.5478C237.245 35.8884 238.389 35.5743 239.54 35.6584C240.139 35.7381 240.716 35.9371 241.236 36.2437C241.756 36.5503 242.209 36.9582 242.569 37.4432C242.918 37.8927 243.174 38.4076 243.321 38.9575C243.467 39.5074 243.502 40.0811 243.423 40.6446C243.317 41.2073 243.096 41.7424 242.775 42.2169C242.454 42.6913 242.039 43.0951 241.556 43.4033C240.856 43.874 240.038 44.1403 239.195 44.1722L239.339 47.5088C239.345 47.6554 239.313 47.801 239.247 47.9321C239.181 48.0631 239.083 48.1755 238.962 48.2587C238.841 48.3419 238.701 48.3932 238.555 48.4079C238.409 48.4226 238.261 48.4003 238.126 48.3429L238.149 48.3616Z" fill="#1F3292"/>
<path d="M239.428 50.1324C239.438 50.2732 239.406 50.4136 239.335 50.5361C239.265 50.6585 239.16 50.7574 239.034 50.8203C238.907 50.8832 238.765 50.9072 238.625 50.8893C238.485 50.8713 238.353 50.8123 238.247 50.7196C238.14 50.627 238.064 50.5048 238.027 50.3687C237.99 50.2325 237.994 50.0885 238.039 49.9548C238.084 49.8211 238.168 49.7037 238.28 49.6175C238.391 49.5314 238.526 49.4803 238.667 49.4707C238.761 49.4637 238.855 49.4754 238.944 49.505C239.033 49.5345 239.115 49.5814 239.186 49.643C239.257 49.7045 239.315 49.7795 239.356 49.8635C239.398 49.9475 239.422 50.0389 239.428 50.1324Z" fill="#1F3292"/>
<path d="M223.155 42.2618C223.175 42.1696 223.189 42.0762 223.197 41.9821C223.197 41.7771 223.249 41.5162 223.286 41.148C223.332 40.696 223.408 40.2476 223.515 39.8059C223.575 39.545 223.608 39.256 223.701 38.9625C223.795 38.6689 223.888 38.352 223.991 38.0305C224.531 36.4373 225.318 34.9388 226.324 33.5895C227.642 31.8423 229.313 30.3912 231.229 29.3302C232.319 28.7164 233.48 28.2375 234.687 27.9043C235.989 27.5597 237.33 27.3842 238.677 27.3824C239.386 27.371 240.096 27.4084 240.8 27.4942C241.159 27.5315 241.514 27.6247 241.873 27.6853C242.237 27.7474 242.595 27.8346 242.947 27.9462C244.418 28.3567 245.817 28.9901 247.095 29.8242C249.938 31.6655 252.104 34.3808 253.265 37.5598C253.89 39.2627 254.206 41.0632 254.198 42.8769C254.217 44.7453 253.887 46.6008 253.223 48.3477L253.013 48.8789L252.985 48.9488L253.013 49.0187C254.184 51.7076 255.346 54.3498 256.443 56.9081L256.639 56.6844L249.639 54.0049L249.555 53.9723L249.485 54.0376C247.633 55.8292 245.366 57.1356 242.886 57.8401C240.767 58.4227 238.548 58.5499 236.376 58.2133C234.204 57.8767 232.129 57.0841 230.286 55.8876C228.777 54.8993 227.447 53.6624 226.352 52.2295C224.766 50.138 223.738 47.6781 223.365 45.081C223.309 44.615 223.263 44.2236 223.221 43.8694C223.179 43.5153 223.221 43.2264 223.197 42.9794C223.174 42.7324 223.197 42.5693 223.197 42.4342C223.221 42.4306 223.242 42.4185 223.256 42.4001C223.271 42.3817 223.278 42.3585 223.276 42.335C223.275 42.3116 223.264 42.2897 223.247 42.2737C223.23 42.2577 223.207 42.2488 223.183 42.2488C223.16 42.2488 223.137 42.2577 223.12 42.2737C223.103 42.2897 223.092 42.3116 223.09 42.335C223.089 42.3585 223.096 42.3817 223.11 42.4001C223.125 42.4185 223.146 42.4306 223.169 42.4342C223.169 42.5693 223.169 42.7511 223.169 42.9794C223.169 43.2077 223.169 43.5246 223.169 43.8788C223.169 44.2329 223.249 44.6383 223.295 45.0997C223.449 46.2205 223.716 47.3229 224.093 48.3896C224.628 49.7984 225.346 51.1303 226.231 52.3506C227.33 53.8091 228.67 55.0698 230.193 56.0786C232.058 57.305 234.163 58.1212 236.369 58.4731C238.574 58.825 240.829 58.7046 242.984 58.1197C245.494 57.4079 247.789 56.089 249.667 54.2799L249.513 54.3125L256.513 57.006L256.863 57.1411L256.709 56.7823C255.598 54.224 254.45 51.5864 253.283 48.8929V49.0281L253.498 48.4828C254.179 46.6978 254.518 44.8009 254.497 42.8908C254.511 41.0387 254.195 39.1987 253.563 37.4573C252.378 34.2149 250.164 31.448 247.259 29.5772C245.948 28.7236 244.512 28.079 243.003 27.6666C242.646 27.5538 242.281 27.4681 241.911 27.4103C241.547 27.3451 241.187 27.2519 240.823 27.2193C240.11 27.1308 239.391 27.0903 238.672 27.0981C237.304 27.1039 235.942 27.2888 234.621 27.648C233.399 27.9946 232.222 28.4859 231.117 29.1112C229.182 30.1982 227.501 31.6834 226.184 33.4683C225.181 34.84 224.405 36.3628 223.883 37.9792C223.785 38.3147 223.692 38.6363 223.608 38.9112C223.534 39.1921 223.475 39.4768 223.431 39.764C223.331 40.2087 223.265 40.6606 223.235 41.1154C223.207 41.4742 223.188 41.7491 223.174 41.9542C223.154 42.0555 223.148 42.1589 223.155 42.2618Z" fill="#263238"/>
</svg>
