<svg width="36" height="36" viewBox="0 0 36 36" fill="none" xmlns="http://www.w3.org/2000/svg">
<rect x="0.5" y="0.5" width="35" height="35" rx="17.5" fill="#E9EBF4"/>
<rect x="0.5" y="0.5" width="35" height="35" rx="17.5" stroke="white"/>
<path fill-rule="evenodd" clip-rule="evenodd" d="M17.5832 10.2915C13.5561 10.2915 10.2915 13.5561 10.2915 17.5832C10.2915 21.6102 13.5561 24.8748 17.5832 24.8748C21.6102 24.8748 24.8748 21.6102 24.8748 17.5832C24.8748 13.5561 21.6102 10.2915 17.5832 10.2915ZM9.0415 17.5832C9.0415 12.8657 12.8657 9.0415 17.5832 9.0415C22.3006 9.0415 26.1248 12.8657 26.1248 17.5832C26.1248 22.3006 22.3006 26.1248 17.5832 26.1248C12.8657 26.1248 9.0415 22.3006 9.0415 17.5832ZM24.2246 24.2246C24.4686 23.9805 24.8644 23.9805 25.1084 24.2246L26.7751 25.8912C27.0192 26.1353 27.0192 26.531 26.7751 26.7751C26.531 27.0192 26.1353 27.0192 25.8912 26.7751L24.2246 25.1084C23.9805 24.8644 23.9805 24.4686 24.2246 24.2246Z" fill="#1F3292"/>
</svg>
