<svg width="20" height="20" viewBox="0 0 20 20" fill="none" xmlns="http://www.w3.org/2000/svg">
<path fill-rule="evenodd" clip-rule="evenodd" d="M6.87508 7.50008C6.87508 5.77419 8.27419 4.37508 10.0001 4.37508C11.726 4.37508 13.1251 5.77419 13.1251 7.50008C13.1251 9.22597 11.726 10.6251 10.0001 10.6251C8.27419 10.6251 6.87508 9.22597 6.87508 7.50008ZM10.0001 5.62508C8.96455 5.62508 8.12508 6.46455 8.12508 7.50008C8.12508 8.53561 8.96455 9.37508 10.0001 9.37508C11.0356 9.37508 11.8751 8.53561 11.8751 7.50008C11.8751 6.46455 11.0356 5.62508 10.0001 5.62508Z" fill="#8C8C8C"/>
<path fill-rule="evenodd" clip-rule="evenodd" d="M1.04175 10.0001C1.04175 5.05253 5.05253 1.04175 10.0001 1.04175C14.9476 1.04175 18.9584 5.05253 18.9584 10.0001C18.9584 14.9476 14.9476 18.9584 10.0001 18.9584C5.05253 18.9584 1.04175 14.9476 1.04175 10.0001ZM10.0001 2.29175C5.74289 2.29175 2.29175 5.74289 2.29175 10.0001C2.29175 12.1214 3.14864 14.0426 4.53517 15.4364C4.6855 14.6254 4.98087 13.8608 5.57372 13.246C6.46052 12.3263 7.87855 11.8751 10 11.8751C12.1215 11.8751 13.5396 12.3263 14.4264 13.246C15.0192 13.8608 15.3146 14.6255 15.4649 15.4364C16.8515 14.0426 17.7084 12.1214 17.7084 10.0001C17.7084 5.74289 14.2573 2.29175 10.0001 2.29175ZM14.3281 16.3796C14.2432 15.3696 14.024 14.6295 13.5265 14.1137C12.9853 13.5524 11.9825 13.1251 10 13.1251C8.01758 13.1251 7.01476 13.5524 6.47354 14.1137C5.97614 14.6295 5.75684 15.3696 5.67194 16.3795C6.90578 17.2183 8.39569 17.7084 10.0001 17.7084C11.6044 17.7084 13.0943 17.2183 14.3281 16.3796Z" fill="#8C8C8C"/>
</svg>
