<svg width="30" height="30" viewBox="0 0 30 30" fill="none" xmlns="http://www.w3.org/2000/svg">
<rect width="30" height="30" rx="15" fill="#F5F5F5"/>
<path fill-rule="evenodd" clip-rule="evenodd" d="M14.9998 6.0415C12.8137 6.0415 11.0415 7.81371 11.0415 9.99984C11.0415 12.186 12.8137 13.9582 14.9998 13.9582C17.186 13.9582 18.9582 12.186 18.9582 9.99984C18.9582 7.81371 17.186 6.0415 14.9998 6.0415ZM12.2915 9.99984C12.2915 8.50407 13.5041 7.2915 14.9998 7.2915C16.4956 7.2915 17.7082 8.50407 17.7082 9.99984C17.7082 11.4956 16.4956 12.7082 14.9998 12.7082C13.5041 12.7082 12.2915 11.4956 12.2915 9.99984Z" fill="#404040"/>
<path fill-rule="evenodd" clip-rule="evenodd" d="M14.9998 15.2082C13.3004 15.2082 11.7311 15.6005 10.565 16.2668C9.4165 16.9231 8.5415 17.925 8.5415 19.1665C8.5415 20.4081 9.4165 21.4099 10.565 22.0662C11.7311 22.7325 13.3004 23.1248 14.9998 23.1248C16.6993 23.1248 18.2686 22.7325 19.4347 22.0662C20.5832 21.4099 21.4582 20.4081 21.4582 19.1665C21.4582 17.925 20.5832 16.9231 19.4347 16.2668C18.2686 15.6005 16.6993 15.2082 14.9998 15.2082ZM9.7915 19.1665C9.7915 18.5671 10.2223 17.9023 11.1851 17.3521C12.1302 16.8121 13.4776 16.4582 14.9998 16.4582C16.5221 16.4582 17.8694 16.8121 18.8145 17.3521C19.7773 17.9023 20.2082 18.5671 20.2082 19.1665C20.2082 19.7659 19.7773 20.4307 18.8145 20.9809C17.8694 21.5209 16.5221 21.8748 14.9998 21.8748C13.4776 21.8748 12.1302 21.5209 11.1851 20.9809C10.2223 20.4307 9.7915 19.7659 9.7915 19.1665Z" fill="#404040"/>
</svg>
